<svg preserveAspectRatio="xMidYMid meet" data-bbox="0 55 50 50" viewBox="0 0 500 500" xmlns="http://www.w3.org/2000/svg" data-type="ugc" role="presentation" aria-hidden="true" aria-label="">
    <g>
        <path fill="#ebebeb" d="M449.9 398.49v.25h-33.12v-.25h33.12z"></path>
        <path fill="#ebebeb" d="M331.22 401.21v.25h-8.69v-.25h8.69z"></path>
        <path fill="#ebebeb" d="M415.78 389.21v.25h-19.19v-.25h19.19z"></path>
        <path fill="#ebebeb" d="M95.65 390.89v.25H52.46v-.25h43.19z"></path>
        <path fill="#ebebeb" d="M110.89 390.89v.25h-6.33v-.25h6.33z"></path>
        <path fill="#ebebeb" d="M225.15 395.11v.25h-93.68v-.25h93.68z"></path>
        <path d="M238.4 337.8H45.3a5.71 5.71 0 0 1-5.71-5.71V60.66A5.71 5.71 0 0 1 45.3 55h193.1a5.71 5.71 0 0 1 5.71 5.71v271.38a5.71 5.71 0 0 1-5.71 5.71ZM45.3 55.2a5.47 5.47 0 0 0-5.46 5.46v271.43a5.47 5.47 0 0 0 5.46 5.46h193.1a5.47 5.47 0 0 0 5.46-5.46V60.66a5.47 5.47 0 0 0-5.46-5.46Z" fill="#ebebeb"></path>
        <path d="M454.7 337.8H261.6a5.71 5.71 0 0 1-5.71-5.71V60.66A5.71 5.71 0 0 1 261.6 55h193.1a5.71 5.71 0 0 1 5.71 5.71v271.38a5.71 5.71 0 0 1-5.71 5.71ZM261.6 55.2a5.47 5.47 0 0 0-5.46 5.46v271.43a5.47 5.47 0 0 0 5.46 5.46h193.1a5.47 5.47 0 0 0 5.46-5.46V60.66a5.47 5.47 0 0 0-5.46-5.46Z" fill="#ebebeb"></path>
        <path fill="#ebebeb" d="M500 382.4v.25H0v-.25h500z"></path>
        <path d="m103.33 267.15-20.27-6.27 22.64 1.2c-5-8.64-7.19-12.89-11.12-21.18 5.66 6.45 8.62 9.73 14.8 16.37a187.24 187.24 0 0 1 7.06-28.27 121.61 121.61 0 0 0-1.94 24.91l.42.08a200.6 200.6 0 0 1 21.81-21.33 164.16 164.16 0 0 0-19.75 26q12.66-4.77 25.5-9.09c-8.58 4.7-17 9.52-25.32 14.6l21 6.68-21.68-1.31c4.57 5.34 6.94 8 11.86 13.46-6.1-4-9.11-6-15.06-10a139.76 139.76 0 0 0 3 16.56c-3-6.76-4.27-10.12-6.56-16.76-4.25 20.36-3.15 40.1 1 60.34l-5.1-.93a158.4 158.4 0 0 1 2.39-59.73c-5.14 5.3-7.54 8-12 13.41a137.9 137.9 0 0 1 8.61-14.46c-7.3 1.6-10.92 2.41-18.07 4 6.45-3.35 9.86-5.01 16.78-8.28Z" fill="#ebebeb"></path>
        <path d="m96.14 274.18 18.75-9.94-22 5.4c3.26-9.41 4.65-14 7-22.88-4.35 7.4-6.65 11.17-11.49 18.85a186.09 186.09 0 0 0-12.21-26.48 122 122 0 0 1 6.55 24.11l-.4.15a203.16 203.16 0 0 0-25.4-16.88 163.33 163.33 0 0 1 24.25 21.86Q67.82 266 54.4 264.2c9.31 3 18.43 6.19 27.59 9.62l-19.35 10.47 21-5.33c-3.48 6.1-5.31 9.19-9.13 15.44 5.24-5.09 7.82-7.62 12.92-12.66a138.47 138.47 0 0 1 .16 16.83c1.65-7.2 2.31-10.75 3.32-17.69 8 19.21 10.58 38.8 10.31 59.45l4.84-1.85a158.21 158.21 0 0 0-13.5-58.24c6 4.25 8.9 6.44 14.29 10.94a136 136 0 0 0-11.17-12.6c7.48.21 11.18.33 18.51.59-7.02-2.06-10.64-3.06-18.05-4.99Z" fill="#e6e6e6"></path>
        <path d="m114.48 285.34-13.67-7.25 16 3.94c-2.38-6.86-3.39-10.21-5.08-16.68 3.17 5.39 4.85 8.14 8.38 13.74a134.86 134.86 0 0 1 8.9-19.3 88.35 88.35 0 0 0-4.78 17.57l.29.12a147.69 147.69 0 0 1 18.52-12.31 119.31 119.31 0 0 0-17.68 15.93q9.72-1.69 19.5-3a459.95 459.95 0 0 0-20.12 7l14.11 7.63-15.35-3.89c2.54 4.45 3.87 6.71 6.66 11.26-3.82-3.71-5.7-5.56-9.42-9.23a102.12 102.12 0 0 0-.12 12.27c-1.2-5.25-1.68-7.83-2.41-12.9-5.82 14-7.72 28.29-7.52 43.34l-3.53-1.35a115.45 115.45 0 0 1 9.84-42.45 129.49 129.49 0 0 0-10.41 8 100.37 100.37 0 0 1 8.13-9.19c-5.44.16-8.14.24-13.49.44 5.21-1.56 7.85-2.29 13.25-3.69Z" fill="#e6e6e6"></path>
        <path fill="#e0e0e0" d="M119.78 382.4H86.83l-3.23-52.48H123l-3.22 52.48z"></path>
        <path fill="#f5f5f5" d="M125.55 332.62H80.72l-.8-6.98h46.44l-.81 6.98z"></path>
        <path fill="#f5f5f5" d="M108.68 101.39v48.15H71.61v-48.15h37.07z"></path>
        <path fill="#ebebeb" d="M105.82 105.09v40.75H74.46v-40.75h31.36z"></path>
        <path fill="#fafafa" d="M103.87 107.64v35.65H76.43v-35.65h27.44z"></path>
        <path fill="#ebebeb" d="M142.89 156.01v31.59h-37.07v-31.59h37.07z"></path>
        <path fill="#f5f5f5" d="M140.04 158.44v26.73h-31.36v-26.73h31.36z"></path>
        <path fill="#fafafa" d="M138.08 160.11v23.39h-27.44v-23.39h27.44z"></path>
        <path fill="#e6e6e6" d="M148.18 146.82h-33.12v-25.49h33.12v25.49z"></path>
        <path fill="#f0f0f0" d="M145.64 144.86h-28.02v-21.57h28.02v21.57z"></path>
        <path fill="#ebebeb" d="M143.88 143.51h-24.51v-18.87h24.51v18.87z"></path>
        <path d="M409.18 330.83h25.25a8.22 8.22 0 0 0 8.22-8.21V285.7a1.5 1.5 0 0 0-1.5-1.5 1.5 1.5 0 0 0-1.5 1.5v36.92a5.22 5.22 0 0 1-5.22 5.21h-25.25Z" fill="#e0e0e0"></path>
        <path d="M402 366.21v-34.38l-2-.63a5.45 5.45 0 0 1-3.81-5.2h19.05a5.46 5.46 0 0 1-3.82 5.2l-2 .63v34.38l15.84 7.12v3l-19.53-6.83-19.53 6.83v-3Z" fill="#e0e0e0"></path>
        <path d="M380.75 327.83h49.81a5.4 5.4 0 0 0 5.4-5.41 5.4 5.4 0 0 0-5.4-5.4h-49.81a5.41 5.41 0 0 0-5.41 5.4 5.41 5.41 0 0 0 5.41 5.41Z" fill="#f0f0f0"></path>
        <path d="m439.35 298.69 2.65-38.44a5.41 5.41 0 0 0-5-5.76 5.4 5.4 0 0 0-5.77 5l-2.68 38.44a5.4 5.4 0 0 0 5 5.77 5.41 5.41 0 0 0 5.8-5.01Z" fill="#ebebeb"></path>
        <path d="M421.77 378.44a3.42 3.42 0 1 0 3.41-3.42 3.41 3.41 0 0 0-3.41 3.42Z" fill="#e0e0e0"></path>
        <path d="M382.71 378.44a3.42 3.42 0 1 0 3.41-3.42 3.41 3.41 0 0 0-3.41 3.42Z" fill="#e0e0e0"></path>
        <path fill="#ebebeb" d="M301.87 382.98h19.51l2-36.98h-23.51l2 36.98z"></path>
        <path fill="#e0e0e0" d="M316.88 382.98h8v-1.65l-8-1v2.65z"></path>
        <path d="M323.38 346h-23.51a3 3 0 0 1 3-3h17.54a3 3 0 0 1 3 3h-.03Z" fill="#e0e0e0"></path>
        <path fill="#e0e0e0" d="M341.88 287.07h31.21v-3.74l-31.21-2v5.74z"></path>
        <path fill="#f0f0f0" d="M295.71 303.67v-12.78h92.33v12.78h-92.33z"></path>
        <path fill="#fafafa" d="M276.57 294.7v-7.62h130.28v7.62H276.57z"></path>
        <path fill="#e6e6e6" d="M288.67 382.98h-5.88l10.18-88.29h6.9l-11.2 88.29z"></path>
        <path fill="#e6e6e6" d="M383.55 294.69h6.9l10.19 88.29h-5.89l-11.2-88.29z"></path>
        <path d="M310.26 285.17q4-19.86 8-39.74c.38-1.89 3.28-1.09 2.9.8l-7.62 37.84H330a1.5 1.5 0 0 1 0 3h-18.29a1.52 1.52 0 0 1-1.45-1.9Z" fill="#e0e0e0"></path>
        <path d="M328.94 274.51 323.8 201a13.61 13.61 0 0 0-5.67 12.05l3.51 50.28a13.62 13.62 0 0 0 7.3 11.18Z" fill="#fafafa"></path>
        <path fill="#f5f5f5" d="M443.89 415.69c0 6.252-86.808 11.32-193.89 11.32-107.082 0-193.89-5.068-193.89-11.32 0-6.252 86.808-11.32 193.89-11.32 107.082 0 193.89 5.068 193.89 11.32z"></path>
        <path fill="#ffffff" d="M431.18 86.19v220.38H227.95V86.19h203.23z"></path>
        <path d="M429.06 90v216.36H229.83V90h199.23m2-2H227.83v220.36h203.23V88Z" fill="#3aa76d"></path>
        <path fill="none" stroke="#3aa76d" stroke-linecap="round" stroke-linejoin="round" d="M271.69 314.37h9.66"></path>
        <path fill="none" stroke="#3aa76d" stroke-linecap="round" stroke-linejoin="round" d="M263.83 314.37h4.61"></path>
        <path fill="none" stroke="#3aa76d" stroke-linecap="round" stroke-linejoin="round" d="M227.83 314.37h31.68"></path>
        <path fill="none" stroke="#3aa76d" stroke-linecap="round" stroke-linejoin="round" d="M390.34 73.98h-4.6"></path>
        <path fill="none" stroke="#3aa76d" stroke-linecap="round" stroke-linejoin="round" d="M426.34 73.98h-31.68"></path>
        <path d="M232.83 79.78h193.24a5 5 0 0 1 5 5v13.78H227.83V84.78a5 5 0 0 1 5-5Z" fill="#3aa76d"></path>
        <path fill="#ffffff" d="M265.04 85.6v6.19h-29.45V85.6h29.45z"></path>
        <path fill="#ffffff" d="M386.8 91.32v1h-6.58v-1h6.58z"></path>
        <path fill="#ffffff" d="m418.1 86.53 4.654 4.652-.707.707-4.653-4.653.707-.707z"></path>
        <path fill="#ffffff" d="m422.03 86.503.707.707-4.653 4.653-.707-.707 4.653-4.653z"></path>
        <path fill="#ffffff" d="m404.91 86.5.707.706-4.964 4.964-.707-.707 4.963-4.964z"></path>
        <path fill="#ffffff" d="M401.71 92.61h-2.2v-2.2l2.2 2.2z"></path>
        <path fill="#ffffff" d="M403.68 86.24h2.2v2.2l-2.2-2.2z"></path>
        <path fill="#e0e0e0" d="M422.57 111.01v1H236.55v-1h186.02z"></path>
        <path fill="#e0e0e0" d="M422.57 124.22v1H236.55v-1h186.02z"></path>
        <path fill="#3aa76d" d="M277 287.31v12.58a1.24 1.24 0 0 1-1.24 1.24h-39.78a1.24 1.24 0 0 1-1.24-1.24v-12.58c0-.685.555-1.24 1.24-1.24h39.78c.685 0 1.24.555 1.24 1.24z"></path>
        <path fill="#263238" d="M310.79 116.13v3.99h-74.45v-3.99h74.45z"></path>
        <path fill="#e0e0e0" d="M310.79 116.13v3.99h-74.45v-3.99h74.45z"></path>
        <path fill="#e0e0e0" d="M265.94 129.9v3.99h-29.6v-3.99h29.6z"></path>
        <path fill="#e0e0e0" d="M409 145.53v3.99H278.32v-3.99H409z"></path>
        <path fill="#e0e0e0" d="M409 152.23v3.99H248.44v-3.99H409z"></path>
        <path fill="#e0e0e0" d="M296.07 158.93v3.99h-47.63v-3.99h47.63z"></path>
        <path fill="#263238" d="M256.51 103.05v3.99h-20.17v-3.99h20.17z"></path>
        <path fill="#e0e0e0" d="M256.51 103.05v3.99h-20.17v-3.99h20.17z"></path>
        <path fill="#ffffff" d="m274.42 292.24-2.73 2.72-2.73-2.72h5.46z"></path>
        <path fill="#ffffff" d="M266.44 288.31v10.58h-1v-10.58h1z"></path>
        <path fill="#263238" d="M290.15 292.88v6.71h-6.71v-6.71h6.71z"></path>
        <path fill="#263238" d="M299.55 292.88v6.71h-6.71v-6.71h6.71z"></path>
        <path fill="#263238" d="M308.95 292.88v6.71h-6.71v-6.71h6.71z"></path>
        <path fill="#263238" d="M318.36 292.88v6.71h-6.71v-6.71h6.71z"></path>
        <path fill="#263238" d="M327.76 292.88v6.71h-6.71v-6.71h6.71z"></path>
        <path fill="#263238" d="M337.16 292.88v6.71h-6.71v-6.71h6.71z"></path>
        <path fill="#263238" d="M346.56 292.88v6.71h-6.71v-6.71h6.71z"></path>
        <path fill="#263238" d="M355.96 292.88v6.71h-6.71v-6.71h6.71z"></path>
        <path fill="#ffffff" opacity=".5" d="M290.15 292.88v6.71h-6.71v-6.71h6.71z"></path>
        <path fill="#ffffff" opacity=".5" d="M299.55 292.88v6.71h-6.71v-6.71h6.71z"></path>
        <path fill="#ffffff" opacity=".5" d="M308.95 292.88v6.71h-6.71v-6.71h6.71z"></path>
        <path fill="#ffffff" opacity=".5" d="M318.36 292.88v6.71h-6.71v-6.71h6.71z"></path>
        <path fill="#ffffff" opacity=".5" d="M327.76 292.88v6.71h-6.71v-6.71h6.71z"></path>
        <path fill="#ffffff" opacity=".5" d="M337.16 292.88v6.71h-6.71v-6.71h6.71z"></path>
        <path fill="#ffffff" opacity=".5" d="M346.56 292.88v6.71h-6.71v-6.71h6.71z"></path>
        <path fill="#ffffff" opacity=".5" d="M355.96 292.88v6.71h-6.71v-6.71h6.71z"></path>
        <path fill="#263238" d="M422.91 292.88v6.71h-6.71v-6.71h6.71z"></path>
        <path fill="#ffffff" opacity=".5" d="M422.91 292.88v6.71h-6.71v-6.71h6.71z"></path>
        <path d="M409 293.13a1.13 1.13 0 1 1-1.12-1.13 1.12 1.12 0 0 1 1.12 1.13Z" fill="#263238"></path>
        <path d="M409 296.52a1.13 1.13 0 1 1-1.12-1.12 1.13 1.13 0 0 1 1.12 1.12Z" fill="#263238"></path>
        <path d="M409 299.92a1.13 1.13 0 1 1-1.12-1.13 1.12 1.12 0 0 1 1.12 1.13Z" fill="#263238"></path>
        <g opacity=".5">
            <path d="M409 293.13a1.13 1.13 0 1 1-1.12-1.13 1.12 1.12 0 0 1 1.12 1.13Z" fill="#ffffff"></path>
            <path d="M409 296.52a1.13 1.13 0 1 1-1.12-1.12 1.13 1.13 0 0 1 1.12 1.12Z" fill="#ffffff"></path>
            <path d="M409 299.92a1.13 1.13 0 1 1-1.12-1.13 1.12 1.12 0 0 1 1.12 1.13Z" fill="#ffffff"></path>
        </g>
        <path d="m239.79 295.91.46-1a3.4 3.4 0 0 0 1.9.6c.79 0 1.11-.26 1.11-.62 0-1.08-3.35-.34-3.35-2.47 0-1 .79-1.8 2.43-1.8a3.8 3.8 0 0 1 2 .51l-.41 1a3.26 3.26 0 0 0-1.59-.45c-.79 0-1.1.3-1.1.66 0 1.06 3.35.33 3.35 2.44 0 1-.8 1.79-2.44 1.79a4.09 4.09 0 0 1-2.36-.66Z" fill="#ffffff"></path>
        <path d="M249.72 294.63h-3.35a1.18 1.18 0 0 0 1.27.89 1.5 1.5 0 0 0 1.11-.43l.68.74a2.31 2.31 0 0 1-1.83.71 2.29 2.29 0 0 1-2.52-2.27 2.25 2.25 0 0 1 2.36-2.28 2.19 2.19 0 0 1 2.3 2.29c0 .1-.01.24-.02.35Zm-3.37-.75h2.18a1.11 1.11 0 0 0-2.18 0Z" fill="#ffffff"></path>
        <path d="M255.12 294v2.53h-1.28v-2.34c0-.71-.33-1-.9-1s-1.06.38-1.06 1.19v2.19h-1.28v-4.43h1.23v.52a1.91 1.91 0 0 1 1.46-.58 1.73 1.73 0 0 1 1.83 1.92Z" fill="#ffffff"></path>
        <path d="M260.84 290.38v6.1h-1.22V296a1.69 1.69 0 0 1-1.38.57 2.28 2.28 0 0 1 0-4.55 1.7 1.7 0 0 1 1.32.53v-2.14Zm-1.25 3.89a1.14 1.14 0 1 0-1.13 1.22 1.13 1.13 0 0 0 1.13-1.22Z" fill="#ffffff"></path>
        <path d="M398.5 104.9a2.61 2.61 0 0 1 4.53-1.61l-.7.65a1.53 1.53 0 0 0-1.2-.56 1.52 1.52 0 0 0 0 3 1.51 1.51 0 0 0 1.2-.57l.7.65a2.61 2.61 0 0 1-4.53-1.6Z" fill="#263238"></path>
        <path d="M403.3 105.45a1.88 1.88 0 0 1 2-1.88 1.67 1.67 0 0 1 1.63.93l-.82.44a.91.91 0 0 0-.82-.5 1 1 0 0 0 0 2 .91.91 0 0 0 .82-.5l.82.44a1.69 1.69 0 0 1-1.63.92 1.88 1.88 0 0 1-2-1.85Z" fill="#263238"></path>
        <path d="M414.76 106c0 .82-.65 1.29-1.9 1.29h-2.45v-4.74h2.32c1.18 0 1.79.49 1.79 1.23a1.13 1.13 0 0 1-.63 1 1.18 1.18 0 0 1 .87 1.22Zm-3.26-2.63v1.12h1.09c.53 0 .83-.19.83-.56s-.3-.56-.83-.56Zm2.15 2.51c0-.4-.3-.59-.87-.59h-1.28v1.17h1.28c.57-.02.87-.19.87-.6Z" fill="#263238"></path>
        <path d="M415.25 105.45a1.88 1.88 0 0 1 2-1.88 1.66 1.66 0 0 1 1.63.93l-.82.44a.89.89 0 0 0-.82-.5 1 1 0 0 0 0 2 .89.89 0 0 0 .82-.5l.82.44a1.68 1.68 0 0 1-1.63.92 1.88 1.88 0 0 1-2-1.85Z" fill="#263238"></path>
        <path d="M419.21 105.45a1.88 1.88 0 0 1 2-1.88 1.67 1.67 0 0 1 1.63.93l-.82.44a.91.91 0 0 0-.82-.5 1 1 0 0 0 0 2 .91.91 0 0 0 .82-.5l.82.44a1.69 1.69 0 0 1-1.63.92 1.88 1.88 0 0 1-2-1.85Z" fill="#263238"></path>
        <path d="M239.56 224s-17.44 1.9-25.35.3-15.42-14.73-15.42-14.73l8.53-5.49 9.68 12.51 22.17 2 6-4.91 6.31 1.52s.14 7.85-2.55 8.27-9.37.53-9.37.53Z" fill="#ffc3bd"></path>
        <path d="M196.62 190.16s5.25-.12 10.83 8.71a31.41 31.41 0 0 1 3.15 6.23c.75 2-3.06 4.37-5.8 6.14-2.13 1.37-4.39 2.84-5.72 2.63a20.3 20.3 0 0 1-2.66-4.56c-2.31-5.5-4.73-19.38.2-19.15Z" fill="#3aa76d"></path>
        <path d="m195.43 206.8 2.41-5.92 1.76-1.43s3.8 7.3 3.52 12.92c-3 1.81-4.75 1.61-6.7-3.06-.3-.71-.64-1.56-.99-2.51Z" opacity=".2"></path>
        <path d="M200 191.25s-.18 8.09-.68 12.21c-.62 5.17-2.05 9.6-6.18 17-4.93 8.85-10.44 18.85-10.44 18.85l-31.65-13.11a219.77 219.77 0 0 0 8.49-24.51 68.42 68.42 0 0 0 2.19-11.34 21 21 0 0 1 1.19-5.7c2.51-6.44 8.18-6.28 13.84-4.48a2.29 2.29 0 0 0 0 .37c.12 4.63 5.48 12.52 7 13.11 1.89.75 7.79-2.49 7.86-6.89a2.44 2.44 0 0 0 0-.27c3.48 1.69 8.38 4.76 8.38 4.76Z" fill="#3aa76d"></path>
        <path fill="#ffffff" opacity=".9" d="m180.47 179.36-6.45.24-4.1 7.11 5.96.94 7.18 7.69 9.57-1.98 4.28 1.04-1.45-6.65-6.83-5.14-8.16-3.25z"></path>
        <path d="M191.63 186.77c-.07 4.4-6 7.64-7.86 6.89-1.51-.59-6.87-8.48-7-13.11a3.74 3.74 0 0 0 3.23-1.15c2.66-3.16 4.31-8.85 5.05-12.43l5.2 10.45a7.32 7.32 0 0 0-1.25 6.28c.06.08.26 1.58 2.63 3.07Z" fill="#ffc3bd"></path>
        <path d="m189 174.86 1.27 2.56a7.92 7.92 0 0 0-1.43 3.64c-3.2-3.3-3.92-8.94-3.92-8.94Z" opacity=".1"></path>
        <path d="M168.94 187.67a67.34 67.34 0 0 1-9.38 14 68.42 68.42 0 0 0 2.19-11.34 21 21 0 0 1 1.19-5.7l3.26-.77Z" opacity=".2"></path>
        <path d="M152 186.38s-10.29 8.11-13.39 11.18c-4.62 4.57-16.89 19.75-16.89 19.75l-7.8 5 .34 5.12 4 2.39a2.58 2.58 0 0 0 3.56-.93l4.42-7.67s11.38-11.91 15.63-15.37c3.59-2.93 15.39-10.32 15.39-10.32Z" fill="#ffc3bd"></path>
        <path d="M171 179.11s-6.64-3.14-12.36.39-9 4.21-7.37 9.16c1.17 3.63 5.66 10.87 5.66 10.87 3.78-1.53 16.77-15.35 14.07-20.42Z" fill="#3aa76d"></path>
        <path d="M154.67 391.36c.18 6.8.34 12.18.34 12.18l7.59.35s.41-4.63 1-11.73Z" fill="#ffc3bd"></path>
        <path d="M164.69 402.81a.23.23 0 0 1-.18-.16.22.22 0 0 1 .11-.21c.14-.07 3.31-1.75 4.82-1.38a1.1 1.1 0 0 1 .68.45.69.69 0 0 1 0 .85 4.14 4.14 0 0 1-2.67.66 18.26 18.26 0 0 1-2.76-.21Zm.69-.27c1.69.17 4 .14 4.4-.4.06-.07.12-.19 0-.43a.56.56 0 0 0-.42-.27 1.44 1.44 0 0 0-.41-.05 10.85 10.85 0 0 0-3.57 1.15Z" fill="#3aa76d"></path>
        <path d="M164.57 402.8a.19.19 0 0 1-.09-.18c0-.1.26-2.34 1.41-3.22a1.71 1.71 0 0 1 1.2-.34c.59.05.78.32.8.54.19.93-2 2.75-3.08 3.2h-.09a.26.26 0 0 1-.15 0Zm2.38-3.37a1.23 1.23 0 0 0-.75.25 4.53 4.53 0 0 0-1.21 2.56c1.13-.62 2.56-2 2.51-2.6 0-.05 0-.19-.43-.22Z" fill="#3aa76d"></path>
        <path d="m163.76 401.66-9-.07a.79.79 0 0 0-.78.58l-1.81 7.37a1.19 1.19 0 0 0 1 1.44 1.27 1.27 0 0 0 .28 0c3.57-.09 5.88-.14 10.32-.17 5.25 0 3.91.53 10.08.56 3.72 0 4.4-3.86 2.83-4-7.25-.76-12.14-5.75-12.92-5.71Z" fill="#263238"></path>
        <path d="m148.44 231.13 2-5c.13-.64.42-1 1-.79l31.63 13.36c.58.24.66.54.34 1.08l-1.72 5.8s-4.29 54.79-6.38 73c-2.13 18.61-10.49 74.41-10.49 74.41a.77.77 0 0 1-.83.67l-9.45-.89a.75.75 0 0 1-.69-.69c-.43-4.68-2.36-34.31-.79-55.47.56-7.56 2.68-13.73 3.25-17.91.64-4.62-1-7.57-2.35-18.49-2.49-20.5-5.96-52.94-5.52-69.08Z" fill="#3aa76d"></path>
        <path d="m148.44 231.13 2-5c.13-.64.42-1 1-.79l31.63 13.36c.58.24.66.54.34 1.08l-1.72 5.8s-4.29 54.79-6.38 73c-2.13 18.61-10.49 74.41-10.49 74.41a.77.77 0 0 1-.83.67l-9.45-.89a.75.75 0 0 1-.69-.69c-.43-4.68-2.36-34.31-.79-55.47.56-7.56 2.68-13.73 3.25-17.91.64-4.62-1-7.57-2.35-18.49-2.49-20.5-5.96-52.94-5.52-69.08Z" opacity=".7"></path>
        <path d="M154 300.27c-.82-6.88-1.77-15.08-2.64-23.56l8.25-16.32 3.52-9.55 4.28 5.07s-5 29.64-12.82 48.59a40.36 40.36 0 0 1-.59-4.23Z" opacity=".5"></path>
        <path d="M87.73 369.83c-3.53 5.81-5.82 9.62-5.82 9.62l6.19 4.4s2.85-3.67 7.21-9.31Z" fill="#ffc3bd"></path>
        <path d="M90.74 382.62a.23.23 0 0 1 0-.24.22.22 0 0 1 .21-.13c.16 0 3.76.18 4.81 1.34a1.12 1.12 0 0 1 .3.78.81.81 0 0 1-.49.79c-.57.21-1.65-.24-2.6-.84a16.17 16.17 0 0 1-2.23-1.7Zm.74.13c1.3 1.08 3.22 2.29 3.88 2 .09 0 .21-.11.22-.42a.59.59 0 0 0-.19-.47 1.35 1.35 0 0 0-.32-.27 9.89 9.89 0 0 0-3.59-.84Z" fill="#3aa76d"></path>
        <path d="M90.65 382.55a.2.2 0 0 1 0-.21c.07-.09 1.57-2 3-2.19a1.6 1.6 0 0 1 1.19.34c.47.36.46.71.35.93-.38.95-3.26 1.43-4.42 1.26a.2.2 0 0 1-.08 0 .27.27 0 0 1-.04-.13Zm3.94-1.8a1.1 1.1 0 0 0-.77-.17 5 5 0 0 0-2.49 1.68c1.29 0 3.31-.48 3.59-1 0-.06.08-.2-.23-.43l-.1-.06Z" fill="#3aa76d"></path>
        <path d="m90.1 380.83-6.54-4.26a.79.79 0 0 0-1 .1l-5.8 5.78a1.32 1.32 0 0 0 0 1.86 1.18 1.18 0 0 0 .21.18c3 1.85 4 2.36 7.75 4.73 4.38 2.8 2.93 2.62 8 6 3.08 2 5.9-1.14 4.7-2.16-5.5-4.62-6.65-11.84-7.32-12.23Z" fill="#263238"></path>
        <path d="M172.83 242.63s-20.75 58.3-31.22 76c-9.29 15.68-45.87 56.69-45.87 56.69a1.66 1.66 0 0 1-2.28.29l-5.74-4.25a1.66 1.66 0 0 1-.49-2.1c3-5.66 15.51-29.23 26.85-44.78 4.52-6.2 9-10.82 11.07-14.21 2.78-4.48 1.83-7.86 3.46-19.89 3-22.36 9.63-55.4 22.64-61.5Z" fill="#3aa76d"></path>
        <path d="M172.83 242.63s-20.75 58.3-31.22 76c-9.29 15.68-45.48 56.93-45.48 56.93a1.65 1.65 0 0 1-2.27.29l-6.51-4.76a1.11 1.11 0 0 1-.33-1.42c2.52-4.84 15.42-29.23 27.06-45.19 4.52-6.2 9-10.82 11.07-14.21 2.78-4.48 1.83-7.86 3.46-19.89 3-22.36 9.63-55.4 22.64-61.5Z" opacity=".7"></path>
        <path d="M197.2 149.2c.43 2.82 3.78 4.37 5.33 7.57 0 0 4.42-3.81 1.32-6.68s-7.31-5.31-6.65-.89Z" fill="#263238"></path>
        <path d="M202.61 152.49c3.4 1.42 5.15 8.13 1 10.62.06.36.31.59.53.46 4.73-2.73 3-11.29-1.16-14.25Z" fill="#263238"></path>
        <path d="M194.47 155.2a17 17 0 0 0-5.13 11.8c-.07 4.39-2.14 7.29.91 10.45 10.56 2.83 10.64 4.12 12.16 4.82.68-2.14.87-8.28-1.88-10.37-2-1.53-3.91-3.22-4.53-5.67a30.63 30.63 0 0 1-.84-10Z" fill="#263238"></path>
        <path d="M182.06 160.26c.62 7.64.71 10.88 4.68 14.74 5.92 5.79 15.19 3.38 16.83-4.29 1.52-6.89.26-18.2-7.3-21.12a10.43 10.43 0 0 0-13.53 5.91 10.31 10.31 0 0 0-.68 4.76Z" fill="#ffc3bd"></path>
        <path d="M199.29 163.05a16.17 16.17 0 0 0 2.1 4 2.68 2.68 0 0 1-2.23.35Z" fill="#ed893e"></path>
        <path d="M196.65 170.87a5.31 5.31 0 0 0 .89 0 .18.18 0 0 0 .17-.18.19.19 0 0 0-.18-.18 4.88 4.88 0 0 1-4.05-1.85.2.2 0 0 0-.26-.05.19.19 0 0 0 0 .26 5.12 5.12 0 0 0 3.43 2Z" fill="#263238"></path>
        <path d="M183.29 147.36c-5.66 4.13-10.93 18 1.23 24.95 2.59-1.23.89-4 .31-8.35-.38-2.84 4.61-7.73 7-9.28s4.85-4 7.49-2.94a3.93 3.93 0 0 0 2.14.56c2.4-.49 1.65-2 .76-3.2a11.54 11.54 0 0 0-5.43-3.53 14.92 14.92 0 0 0-13.5 1.79Z" fill="#263238"></path>
        <path d="M190.22 155.79a8.74 8.74 0 0 1-1.68 4.13 6 6 0 0 1-4 2.07 18 18 0 0 1-4.63-.27 9.1 9.1 0 0 0 12.54-3.86c.55-1.08.87-2.25 1.35-3.37a6 6 0 0 1 2.16-2.84 2.93 2.93 0 0 1 3.39.09 1.12 1.12 0 0 0 .75-1.91c-1.45-.13-8.83-1.98-9.88 5.96Z" fill="#263238"></path>
        <path d="M180.55 150.2c-3.16 3-6.17 8.82-6.25 13.21a17 17 0 0 0 4.7 11.94 21.93 21.93 0 0 1 10.23 4.38c1.19-3.24-1-9.34-3.76-11.42-2-1.54-3.91-3.23-4.53-5.68a30.87 30.87 0 0 1-.85-10Z" fill="#263238"></path>
        <path d="M179.9 166.06a5.55 5.55 0 0 0 3 3.07c1.81.77 2.93-.79 2.67-2.62-.27-1.65-1.52-4-3.44-4a2.51 2.51 0 0 0-2.2 3.58Z" fill="#ffc3bd"></path>
        <path d="M191.61 159.42a.36.36 0 0 0 .4-.12 4.21 4.21 0 0 1 3.22-1.29.37.37 0 0 0 0-.73 5 5 0 0 0-3.84 1.59.37.37 0 0 0 .06.51Z" fill="#263238"></path>
        <path d="M203.24 158.84a.37.37 0 0 0 .35-.09.35.35 0 0 0 0-.51 3.68 3.68 0 0 0-3.13-1.15.38.38 0 0 0-.3.43.36.36 0 0 0 .43.29 2.89 2.89 0 0 1 2.46.94.59.59 0 0 0 .19.09Z" fill="#263238"></path>
        <path d="M202.25 161.61c.42 0 .74.57.7 1.21s-.4 1.17-.82 1.14-.74-.57-.71-1.21.41-1.16.83-1.14Z" fill="#263238"></path>
        <path d="m203.64 161.28-1.58.37c.71.8 1.58-.37 1.58-.37Z" fill="#263238"></path>
        <path d="M194.88 161.43c.42 0 .74.57.7 1.22s-.4 1.16-.82 1.14-.74-.57-.71-1.22.41-1.15.83-1.14Z" fill="#263238"></path>
        <path d="m196.27 161.11-1.59.37c.72.8 1.59-.37 1.59-.37Z" fill="#263238"></path>
        <path fill="#3aa76d" d="m150.94 228.17 6.05 2.52-.89 2.11-6.02-2.53.86-2.1z"></path>
        <path fill="#3aa76d" d="m158.599 231.371 5.952 2.485-.878 2.104-5.952-2.485.878-2.104z"></path>
        <path fill="#3aa76d" d="m174.49 237.99 4.04 1.68-.87 2.11-4.05-1.69.88-2.1z"></path>
        <path fill="#3aa76d" d="m180.137 240.333 1.772.741-.88 2.104-1.772-.741.88-2.104z"></path>
        <path d="M256.56 208.78a9.18 9.18 0 0 1-9.16-9.17v-17.76a1 1 0 0 1 1.94 0v17.76a7.23 7.23 0 1 0 14.45 0v-18.68a1 1 0 1 1 1.94 0v18.68a9.18 9.18 0 0 1-9.17 9.17Z" fill="#263238"></path>
        <path fill="#3aa76d" d="m293.798 180.777 9.968 63.806a4.35 4.35 0 0 1-3.626 4.97l-43.65 6.819a4.35 4.35 0 0 1-4.97-3.626l-9.969-63.806a4.35 4.35 0 0 1 3.627-4.97l43.65-6.82a4.35 4.35 0 0 1 4.97 3.627z"></path>
        <path fill="#ffffff" opacity=".6" d="m293.798 180.777 9.968 63.806a4.35 4.35 0 0 1-3.626 4.97l-43.65 6.819a4.35 4.35 0 0 1-4.97-3.626l-9.969-63.806a4.35 4.35 0 0 1 3.627-4.97l43.65-6.82a4.35 4.35 0 0 1 4.97 3.627z"></path>
        <path opacity=".2" d="m292.564 212.453.051.317a1.003 1.003 0 0 1-.83 1.15l-35.095 5.672a1.003 1.003 0 0 1-1.15-.83l-.051-.317a1.003 1.003 0 0 1 .83-1.15l35.095-5.672a1.003 1.003 0 0 1 1.15.83z"></path>
        <path opacity=".2" d="m293.088 221.459.051.316a1 1 0 0 1-.828 1.146l-34.998 5.644a1 1 0 0 1-1.146-.828l-.051-.316a1 1 0 0 1 .828-1.147l34.998-5.643a1 1 0 0 1 1.146.828z"></path>
        <path opacity=".2" d="m294.6 230.829.051.316a1 1 0 0 1-.828 1.146l-34.998 5.644a1 1 0 0 1-1.146-.828l-.051-.316a1 1 0 0 1 .828-1.147l34.998-5.643a1 1 0 0 1 1.146.828z"></path>
        <path fill="#3aa76d" d="m292.71 183.23 7.411 64.154a4.35 4.35 0 0 1-3.822 4.82l-43.888 5.07a4.35 4.35 0 0 1-4.82-3.821l-7.412-64.153a4.35 4.35 0 0 1 3.822-4.82l43.888-5.071a4.35 4.35 0 0 1 4.82 3.822z"></path>
        <path fill="#ffffff" opacity=".7" d="m292.71 183.23 7.411 64.154a4.35 4.35 0 0 1-3.822 4.82l-43.888 5.07a4.35 4.35 0 0 1-4.82-3.821l-7.412-64.153a4.35 4.35 0 0 1 3.822-4.82l43.888-5.071a4.35 4.35 0 0 1 4.82 3.822z"></path>
        <path opacity=".2" d="m289.26 214.446.039.318a1 1 0 0 1-.873 1.112l-35.196 4.24a1 1 0 0 1-1.112-.873l-.038-.317a1 1 0 0 1 .873-1.113l35.195-4.24a1 1 0 0 1 1.113.873z"></path>
        <path opacity=".2" d="m290.39 223.863.038.318a1 1 0 0 1-.874 1.112l-35.195 4.24a1 1 0 0 1-1.112-.873l-.039-.317a1 1 0 0 1 .873-1.113l35.196-4.24a1 1 0 0 1 1.112.873z"></path>
        <path opacity=".2" d="m291.527 233.27.038.317a1 1 0 0 1-.873 1.112l-35.196 4.24a1 1 0 0 1-1.112-.873l-.038-.317a1 1 0 0 1 .873-1.113l35.195-4.24a1 1 0 0 1 1.113.873z"></path>
        <path d="m296.53 199.29.1 54.31a1.27 1.27 0 0 1-1.27 1.27l-50.22.09a1.26 1.26 0 0 1-1.27-1.26l-.12-70.65a1.26 1.26 0 0 1 1.26-1.27l33.84-.06Z" fill="#3aa76d"></path>
        <path d="m296.53 199.29.1 54.31a1.27 1.27 0 0 1-1.27 1.27l-50.22.09a1.26 1.26 0 0 1-1.27-1.26l-.12-70.65a1.26 1.26 0 0 1 1.26-1.27l33.84-.06Z" fill="#ffffff" opacity=".8"></path>
        <path fill="#263238" d="m288.916 216.636.001.32a1 1 0 0 1-.995 1.004l-35.45.174a1 1 0 0 1-1.004-.995l-.002-.32a1 1 0 0 1 .995-1.005l35.45-.174a1 1 0 0 1 1.005.996z"></path>
        <path fill="#263238" d="m288.923 226.166.001.32a1 1 0 0 1-.995 1.005l-35.45.167a1 1 0 0 1-1.004-.996l-.002-.32a1 1 0 0 1 .996-1.004l35.45-.167a1 1 0 0 1 1.004.995z"></path>
        <path fill="#263238" d="m289.008 235.605.002.32a1 1 0 0 1-.995 1.005l-35.45.173a1 1 0 0 1-1.004-.995l-.002-.32a1 1 0 0 1 .995-1.005l35.45-.173a1 1 0 0 1 1.004.995z"></path>
        <path d="M278.88 181.68v16.38a1.27 1.27 0 0 0 1.26 1.27h16.34Z" fill="#3aa76d"></path>
        <path d="M278.88 181.68v16.38a1.27 1.27 0 0 0 1.26 1.27h16.34Z" fill="#ffffff" opacity=".9"></path>
        <path fill="#ffffff" opacity=".5" d="m288.916 216.636.001.32a1 1 0 0 1-.995 1.004l-35.45.174a1 1 0 0 1-1.004-.995l-.002-.32a1 1 0 0 1 .995-1.005l35.45-.174a1 1 0 0 1 1.005.996z"></path>
        <path fill="#ffffff" opacity=".5" d="m288.923 226.166.001.32a1 1 0 0 1-.995 1.005l-35.45.167a1 1 0 0 1-1.004-.996l-.002-.32a1 1 0 0 1 .996-1.004l35.45-.167a1 1 0 0 1 1.004.995z"></path>
        <path fill="#ffffff" opacity=".5" d="m289.008 235.605.002.32a1 1 0 0 1-.995 1.005l-35.45.173a1 1 0 0 1-1.004-.995l-.002-.32a1 1 0 0 1 .995-1.005l35.45-.173a1 1 0 0 1 1.004.995z"></path>
        <path d="M260.67 182.84h-1.94v-3.33a4.7 4.7 0 0 0-9.39 0v2.36h-1.94v-2.36a6.64 6.64 0 0 1 13.27 0Z" fill="#263238"></path>
        <path d="M256.51 200.47a4.16 4.16 0 0 1-4.15-4.16V181a1 1 0 1 1 1.94 0v15.36a2.22 2.22 0 1 0 4.43 0v-14.49a1 1 0 1 1 1.94 0v14.44a4.16 4.16 0 0 1-4.16 4.16Z" fill="#263238"></path>
    </g>
</svg>